<svg height="512" viewBox="0 0 58 58" width="512" xmlns="http://www.w3.org/2000/svg"><g id="Page-1" fill="none" fill-rule="evenodd"><g id="001---Dog" fill-rule="nonzero"><path id="Shape" d="m41.94 49.52c.040843.1566995.0610141.3180683.06.48v6c-.0032948 1.1032019-.8967981 1.9967052-2 2h-22c-1.1032019-.0032948-1.9967052-.8967981-2-2v-6c-.0010141-.1619317.019157-.3233005.06-.48z" fill="#67b9cc"/><path id="Shape" d="m34 45v8c0 2.7614237-2.2385763 5-5 5s-5-2.2385763-5-5v-8z" fill="#ff5364"/><path id="Shape" d="m29 53c-.5522847 0-1-.4477153-1-1v-9c0-.5522847.4477153-1 1-1s1 .4477153 1 1v9c0 .5522847-.4477153 1-1 1z" fill="#df4d60"/><path id="Shape" d="m58 12v6c0 3.3137085-2.6862915 6-6 6-1.4786877.0032462-2.9052585-.5459835-4-1.54-.08-.07-.16-.14-.24-.22-1.1308021-1.1206101-1.7648139-2.6480021-1.76-4.24v5c.0368125 3.6145743-.6676866 7.1983308-2.07 10.53-.31.71-.61 1.31-.88 1.81 2.5207763 2.2686412 3.5522677 5.7616697 2.6682556 9.035745s-3.5334193 5.7732479-6.8534706 6.4648447c-3.3200512.6915967-6.7469902-.541818-8.864785-3.1905897-.3870647-.476373-.7222888-.9926182-1-1.54-.2777112.5473818-.6129353 1.063627-1 1.54-2.1177948 2.6487717-5.5447338 3.8821864-8.864785 3.1905897-3.3200513-.6915968-5.9694585-3.1907694-6.8534706-6.4648447s.1474793-6.7671038 2.6682556-9.035745c0-.01-.01-.01-.01-.02-.27-.5-.57-1.1-.87-1.81-1.4004471-3.3252252-2.1049257-6.9020705-2.07-10.51v-5c.0048139 1.5919979-.6291979 3.1193899-1.76 4.24-.08.08-.16.15-.24.22-1.09474154.9940165-2.52131233 1.5432462-4 1.54-3.3137085 0-6-2.6862915-6-6v-6c0-6 9-12 15-12 4.01 0 7.09 3.16 8.89 6.76.6494988-.20316972 1.3107101-.36680282 1.98-.49 1.0337979-.17852805 2.0809009-.26885323 3.13-.27 1.0459791-.00342292 2.0901589.08693879 3.12.27.6725738.12321162 1.3371116.28684153 1.99.49 1.8-3.6 4.88-6.76 8.89-6.76 6 0 15 6 15 12z" fill="#cb8252"/><g fill="#a56a43"><path id="Shape" d="m43.93 33.53c-.31.71-.61 1.31-.88 1.81-1.0242246-.6313785-2.1097642-1.1573962-3.24-1.57-.2497236-.0918888-.4519434-.2804369-.5610603-.5231279s-.1159432-.5190905-.0189397-.7668721c.1990111-.5135977.7737417-.7720037 1.29-.58 1.1805214.4463804 2.3212407.9916509 3.41 1.63z"/><path id="Shape" d="m18.47 33.68c-1.236762.4067155-2.4215292.9571456-3.53 1.64-.27-.5-.57-1.1-.87-1.81 1.1859641-.7130624 2.446911-1.2932321 3.76-1.73.5246705-.1767311 1.0932689.1053295 1.27.63s-.1053295 1.0932689-.63 1.27z"/><path id="Shape" d="m26.02 9.13c-.1236795.0513887-.2560772.0785472-.39.08-.4012802-.00032704-.7635008-.24049505-.92-.61l-.52-1.2s-.12-.27-.3-.64c.6494988-.20316972 1.3107101-.36680282 1.98-.49.09.19.14.31.15.32l.53 1.22c.2180378.51086464-.0192186 1.10176734-.53 1.32z"/><path id="Shape" d="m34.11 6.76c-.19.38-.31.64-.31.65l-.51 1.19c-.1564992.36950495-.5187198.60967296-.92.61-.1339228-.0014528-.2663205-.0286113-.39-.08-.5107814-.21823266-.7480378-.80913536-.53-1.32l.52-1.21c.0557884-.10727592.1058584-.21743007.15-.33.6725738.12321162 1.3371116.28684153 1.99.49z"/><path id="Shape" d="m14.71 7.71c-.3930079.38997787-1.0269921.38997787-1.42 0-.58-.58-.84-.58-.85-.57-.3507516.48947223-.5075257 1.09162715-.44 1.69v2.62c.1720536-.1306392.3562284-.2444928.55-.34.4835272-.2013504 1.0404963.0045141 1.2768341.4719378s.0719586 1.0380149-.3768341 1.3080622c-1.45.73-1.45 3.27-1.45 4.11v1c.0048139 1.5919979-.6291979 3.1193899-1.76 4.24-.08.08-.16.15-.24.22v-13.63c0-1.78.63-3.11 1.69-3.54.64-.27 1.7-.32 3.02 1 .3899779.39300794.3899779 1.02699206 0 1.42z"/><path id="Shape" d="m48 8.83v13.63c-.08-.07-.16-.14-.24-.22-1.1308021-1.1206101-1.7648139-2.6480021-1.76-4.24v-1c0-.84 0-3.38-1.45-4.11-.3460386-.1440974-.5824323-.4696151-.6123817-.8432591s.1515756-.73266.4702434-.9300368c.3186678-.1973769.7209575-.1999648 1.0421383-.0067041.1937716.0955072.3779464.2093608.55.34v-2.62c.0687805-.60306846-.0918618-1.20993945-.45-1.7 0 0-.27.01-.84.58-.3921222.39212214-1.0278778.39212212-1.42-.00000004-.3921221-.39212215-.3921221-1.02787778 0-1.41999996 1.32-1.32 2.37-1.27 3.02-1 1.06.43 1.69 1.76 1.69 3.54z"/></g><circle id="Oval" cx="21" cy="23" fill="#ecf0f1" r="4"/><circle id="Oval" cx="37" cy="23" fill="#ecf0f1" r="4"/><path id="Shape" d="m16 19c-.4043959-.0000863-.7689341-.2437275-.923678-.6173454-.1547439-.373618-.0692299-.8036603.216678-1.0896546 1.2252286-1.32851 2.9056549-2.1471243 4.707-2.293.3572656-.0017863.6883456.187162.8685254.4956699s.1820858.6897057.005 1c-.1770858.3102942-.5062598.5025438-.8635254.5043301-1.2709945.1487239-2.4442099.7555962-3.3 1.707-.1882272.1882861-.4437659.2937408-.71.293z" fill="#805333"/><path id="Shape" d="m42 19c-.2651948-.0000566-.5195073-.1054506-.707-.293-.8562764-.9529297-2.0313332-1.5600187-3.304-1.707-.5499441-.0093162-.9891292-.4610111-.983-1.011.0059929-.5456548.4483219-.9857588.994-.989 1.8013451.1458757 3.4817714.96449 4.707 2.293.2859079.2859943.3714219.7160366.216678 1.0896546-.1547439.3736179-.5192821.6172591-.923678.6173454z" fill="#805333"/><path id="Shape" d="m30 39v8.65c-.3870647-.476373-.7222888-.9926182-1-1.54-.2777112.5473818-.6129353 1.063627-1 1.54v-8.65z" fill="#a56a43"/><circle id="Oval" cx="24" cy="43" fill="#805333" r="1"/><circle id="Oval" cx="22" cy="47" fill="#805333" r="1"/><circle id="Oval" cx="18" cy="45" fill="#805333" r="1"/><circle id="Oval" cx="34" cy="43" fill="#805333" r="1"/><circle id="Oval" cx="36" cy="47" fill="#805333" r="1"/><circle id="Oval" cx="40" cy="45" fill="#805333" r="1"/><path id="Shape" d="m29 41c2.4 0 4-3 4-4s-1.6-2-4-2-4 1-4 2 1.6 4 4 4z" fill="#35495e"/><circle id="Oval" cx="22" cy="23" fill="#35495e" r="2"/><circle id="Oval" cx="36" cy="23" fill="#35495e" r="2"/><circle id="Oval" cx="21" cy="22" fill="#ecf0f1" r="1"/><circle id="Oval" cx="35" cy="22" fill="#ecf0f1" r="1"/></g></g></svg>